<svg width="145" height="56" viewBox="0 0 145 56" fill="none" xmlns="http://www.w3.org/2000/svg">
<g filter="url(#filter0_d_20005128_13052)">
<g clip-path="url(#clip0_20005128_13052)">
<g clip-path="url(#clip1_20005128_13052)">
<g clip-path="url(#clip2_20005128_13052)">
<path d="M14.2 26L8.09998 16.3L27 4L26.5 14.7L14.2 26Z" fill="url(#paint0_linear_20005128_13052)"/>
<path d="M26.5 14.7L27 4L46.4 12.7L42.3 30.1L16.2 34.2L14.2 26L26.5 14.7Z" fill="url(#paint1_linear_20005128_13052)"/>
<path d="M35.2 48L16.3 34.2L42.4 30.1L47 34.7L35.2 48Z" fill="url(#paint2_linear_20005128_13052)"/>
<path d="M42.3 30.1L46.9 34.7L51 21.9L46.4 12.7L42.3 30.1Z" fill="url(#paint3_linear_20005128_13052)"/>
<path d="M16.3 34.2L35.2 48L16.3 45.4L4 30.6L16.3 34.2Z" fill="url(#paint4_linear_20005128_13052)"/>
<path d="M8.1 16.3L4 30.6L16.3 34.2L14.3 26L8.1 16.3Z" fill="url(#paint5_linear_20005128_13052)"/>
<path d="M35.2 48L16.3 34.2L42.4 30.1L47 34.7L35.2 48Z" fill="black" fill-opacity="0.17"/>
<path d="M42.3 30.1L46.9 34.7L51 21.9L46.4 12.7L42.3 30.1Z" fill="black" fill-opacity="0.1"/>
<path d="M16.3 34.2L35.2 48L16.3 45.4L4 30.6L16.3 34.2Z" fill="black" fill-opacity="0.23"/>
<path d="M8.1 16.3L4 30.6L16.3 34.2L14.3 26L8.1 16.3Z" fill="#C0C0C0" fill-opacity="0.05"/>
<path d="M14.2 26L8.09998 16.3L27 4L26.5 14.7L14.2 26Z" fill="white" fill-opacity="0.15"/>
<path fill-rule="evenodd" clip-rule="evenodd" d="M14.2 26L26.5 14.7L27 4L8.09998 16.3L14.2 26ZM14.3 25.5L26.2 14.6L26.7 4.6L8.49998 16.4L14.3 25.5Z" fill="white" fill-opacity="0.15"/>
<path fill-rule="evenodd" clip-rule="evenodd" d="M26.8 14.9L14.6 26.1L16.5 33.8L42.1 29.8L46.1 12.9L27.3 4.5L26.8 14.9ZM26.5 14.7L14.2 26L16.2 34.2L42.3 30.1L46.4 12.7L27 4L26.5 14.7Z" fill="white" fill-opacity="0.15"/>
<path fill-rule="evenodd" clip-rule="evenodd" d="M35.1 47.6L46.5 34.7L42.2 30.4L17 34.4L35.1 47.6ZM35.2 48L46.9 34.7L42.3 30.1L16.2 34.2L35.2 48Z" fill="white" fill-opacity="0.15"/>
<path fill-rule="evenodd" clip-rule="evenodd" d="M46.9 34.7L51 21.9L46.4 12.7L42.3 30.1L46.9 34.7ZM42.7 30L46.8 34.1L50.7 21.9L46.5 13.6L42.7 30Z" fill="white" fill-opacity="0.15"/>
<path fill-rule="evenodd" clip-rule="evenodd" d="M16.1 34.5L4.9 31.2L16.4 45.2L34 47.5L16.1 34.5ZM16.3 34.2L4 30.6L16.3 45.4L35.2 48L16.3 34.2Z" fill="white" fill-opacity="0.15"/>
<path fill-rule="evenodd" clip-rule="evenodd" d="M4.4 30.4L15.9 33.7L14 26.1L8.2 17L4.4 30.4ZM4 30.6L16.3 34.2L14.3 26L8.2 16.3L4 30.6Z" fill="white" fill-opacity="0.15"/>
<path d="M27.7 23H31.2C31.1 19.9 28.6 17.8 24.8 17.8C21 17.8 18.3 19.9 18.3 23C18.3 25.5 20.1 27 23 27.7L24.9 28.2C26.8 28.7 27.8 29.2 27.8 30.3C27.8 31.6 26.6 32.4 24.8 32.4C22.9 32.4 21.6 31.5 21.4 29.8H17.9C18 33.5 20.6 35.4 24.8 35.4C29 35.4 31.4 33.4 31.4 30.3C31.4 27.4 29.2 25.9 26.3 25.3L24.8 24.9C23.2 24.6 22 24 22 22.8C22 21.7 23 20.9 24.7 20.9C26.5 20.9 27.6 21.7 27.7 23Z" fill="white"/>
<path d="M36.5 23.3H33.3V35.2H36.5V23.3Z" fill="white"/>
<path d="M35.3 13.9H34.1L32.6 14.8V16L34 15.1V19.9H35.3V13.9Z" fill="white"/>
<path d="M36.7 18.8H39.6V19.8H40.8V18.8H41.5V17.8H40.8V13.9H39.2L36.7 17.8V18.8ZM39.6 17.8H38L39.6 15.3V17.8Z" fill="white"/>
</g>
</g>
</g>
<path d="M65.1136 34.062C64.0043 34.062 63.0024 33.8679 62.108 33.4796C61.2205 33.0844 60.4891 32.5228 59.9136 31.7948C59.3451 31.0599 58.9845 30.1863 58.832 29.174L61.7856 28.7372C61.9936 29.5969 62.4235 30.2591 63.0752 30.7236C63.7269 31.1881 64.4688 31.4204 65.3008 31.4204C65.7653 31.4204 66.216 31.3476 66.6528 31.202C67.0896 31.0564 67.4467 30.8415 67.724 30.5572C68.0083 30.2729 68.1504 29.9228 68.1504 29.5068C68.1504 29.3543 68.1261 29.2087 68.0776 29.07C68.036 28.9244 67.9632 28.7892 67.8592 28.6644C67.7552 28.5396 67.6061 28.4217 67.412 28.3108C67.2248 28.1999 66.9856 28.0993 66.6944 28.0092L62.8048 26.8652C62.5136 26.782 62.1739 26.6641 61.7856 26.5116C61.4043 26.3591 61.0333 26.1407 60.6728 25.8564C60.3123 25.5721 60.0107 25.1977 59.768 24.7332C59.5323 24.2617 59.4144 23.6689 59.4144 22.9548C59.4144 21.9495 59.6675 21.114 60.1736 20.4484C60.6797 19.7828 61.3557 19.2871 62.2016 18.9612C63.0475 18.6353 63.9835 18.4759 65.0096 18.4828C66.0427 18.4967 66.9648 18.6735 67.776 19.0132C68.5872 19.3529 69.2667 19.8487 69.8144 20.5004C70.3621 21.1452 70.7573 21.9356 71 22.8716L67.9424 23.3916C67.8315 22.9063 67.6269 22.4972 67.3288 22.1644C67.0307 21.8316 66.6736 21.5785 66.2576 21.4052C65.8485 21.2319 65.4187 21.1383 64.968 21.1244C64.5243 21.1105 64.1048 21.1729 63.7096 21.3116C63.3213 21.4433 63.0024 21.6375 62.7528 21.894C62.5101 22.1505 62.3888 22.4556 62.3888 22.8092C62.3888 23.1351 62.4893 23.402 62.6904 23.61C62.8915 23.8111 63.1445 23.974 63.4496 24.0988C63.7547 24.2236 64.0667 24.3276 64.3856 24.4108L66.9856 25.118C67.3739 25.222 67.8037 25.3607 68.2752 25.534C68.7467 25.7004 69.1973 25.9361 69.6272 26.2412C70.064 26.5393 70.4211 26.9345 70.6984 27.4268C70.9827 27.9191 71.1248 28.5431 71.1248 29.2988C71.1248 30.1031 70.9549 30.8068 70.6152 31.41C70.2824 32.0063 69.8317 32.502 69.2632 32.8972C68.6947 33.2855 68.0499 33.5767 67.3288 33.7708C66.6147 33.9649 65.8763 34.062 65.1136 34.062ZM73.6187 20.958V18.462H76.4475V20.958H73.6187ZM73.6187 33.75V22.518H76.4475V33.75H73.6187ZM79.7734 33.75V18.462H82.6022V33.75H79.7734ZM85.9281 20.958V18.462H88.7569V20.958H85.9281ZM85.9281 33.75V22.518H88.7569V33.75H85.9281ZM96.8252 34.062C95.6604 34.062 94.662 33.802 93.83 33.282C92.998 32.762 92.3601 32.0548 91.9164 31.1604C91.4726 30.266 91.2508 29.2572 91.2508 28.134C91.2508 26.9969 91.4796 25.9812 91.9372 25.0868C92.4017 24.1924 93.0534 23.4887 93.8924 22.9756C94.7313 22.4625 95.7228 22.206 96.8668 22.206C98.191 22.206 99.3004 22.5423 100.195 23.2148C101.096 23.8804 101.672 24.7921 101.921 25.95L99.0924 26.6988C98.926 26.1164 98.6348 25.6623 98.2188 25.3364C97.8097 25.0105 97.3452 24.8476 96.8252 24.8476C96.2289 24.8476 95.7401 24.9932 95.3588 25.2844C94.9774 25.5687 94.6966 25.9604 94.5164 26.4596C94.3361 26.9519 94.246 27.51 94.246 28.134C94.246 29.1116 94.4609 29.9055 94.8908 30.5156C95.3276 31.1188 95.9724 31.4204 96.8252 31.4204C97.463 31.4204 97.9484 31.2748 98.2812 30.9836C98.614 30.6924 98.8636 30.2764 99.03 29.7356L101.921 30.3388C101.602 31.5313 100.999 32.45 100.112 33.0948C99.2241 33.7396 98.1286 34.062 96.8252 34.062ZM108.751 34.062C107.621 34.062 106.629 33.8089 105.777 33.3028C104.924 32.7967 104.258 32.0999 103.78 31.2124C103.308 30.318 103.073 29.2919 103.073 28.134C103.073 26.9623 103.315 25.9327 103.801 25.0452C104.286 24.1508 104.955 23.454 105.808 22.9548C106.661 22.4556 107.642 22.206 108.751 22.206C109.881 22.206 110.873 22.4591 111.725 22.9652C112.585 23.4713 113.254 24.1716 113.733 25.066C114.211 25.9535 114.45 26.9761 114.45 28.134C114.45 29.2988 114.208 30.3284 113.722 31.2228C113.244 32.1103 112.575 32.8071 111.715 33.3132C110.862 33.8124 109.874 34.062 108.751 34.062ZM108.751 31.4204C109.659 31.4204 110.335 31.1153 110.779 30.5052C111.23 29.8881 111.455 29.0977 111.455 28.134C111.455 27.1356 111.226 26.3383 110.769 25.742C110.318 25.1457 109.645 24.8476 108.751 24.8476C108.134 24.8476 107.628 24.9863 107.233 25.2636C106.837 25.5409 106.543 25.9257 106.349 26.418C106.161 26.9103 106.068 27.4823 106.068 28.134C106.068 29.1393 106.293 29.9401 106.744 30.5364C107.201 31.1257 107.87 31.4204 108.751 31.4204ZM124.392 33.75V28.446C124.392 28.1895 124.378 27.8636 124.35 27.4684C124.322 27.0663 124.236 26.6641 124.09 26.262C123.944 25.8599 123.705 25.5236 123.372 25.2532C123.047 24.9828 122.582 24.8476 121.979 24.8476C121.736 24.8476 121.476 24.8857 121.199 24.962C120.922 25.0383 120.662 25.1873 120.419 25.4092C120.176 25.6241 119.975 25.9431 119.816 26.366C119.663 26.7889 119.587 27.3505 119.587 28.0508L117.964 27.2812C117.964 26.3937 118.145 25.5617 118.505 24.7852C118.866 24.0087 119.407 23.3812 120.128 22.9028C120.856 22.4244 121.771 22.1852 122.873 22.1852C123.754 22.1852 124.471 22.3343 125.026 22.6324C125.581 22.9305 126.011 23.3084 126.316 23.766C126.628 24.2236 126.85 24.702 126.981 25.2012C127.113 25.6935 127.193 26.1441 127.22 26.5532C127.248 26.9623 127.262 27.2604 127.262 27.4476V33.75H124.392ZM116.716 33.75V22.518H119.233V26.2412H119.587V33.75H116.716Z" fill="#131022"/>
</g>
<defs>
<filter id="filter0_d_20005128_13052" x="0" y="0" width="148.46" height="60" filterUnits="userSpaceOnUse" color-interpolation-filters="sRGB">
<feFlood flood-opacity="0" result="BackgroundImageFix"/>
<feColorMatrix in="SourceAlpha" type="matrix" values="0 0 0 0 0 0 0 0 0 0 0 0 0 0 0 0 0 0 127 0" result="hardAlpha"/>
<feOffset dy="4"/>
<feGaussianBlur stdDeviation="2"/>
<feComposite in2="hardAlpha" operator="out"/>
<feColorMatrix type="matrix" values="0 0 0 0 0 0 0 0 0 0 0 0 0 0 0 0 0 0 0.25 0"/>
<feBlend mode="normal" in2="BackgroundImageFix" result="effect1_dropShadow_20005128_13052"/>
<feBlend mode="normal" in="SourceGraphic" in2="effect1_dropShadow_20005128_13052" result="shape"/>
</filter>
<linearGradient id="paint0_linear_20005128_13052" x1="3.99998" y1="15" x2="51" y2="15" gradientUnits="userSpaceOnUse">
<stop stop-color="#6366F1"/>
<stop offset="0.5" stop-color="#8B5CF6"/>
<stop offset="1" stop-color="#D946EF"/>
</linearGradient>
<linearGradient id="paint1_linear_20005128_13052" x1="4.00001" y1="19.1" x2="51" y2="19.1" gradientUnits="userSpaceOnUse">
<stop stop-color="#6366F1"/>
<stop offset="0.5" stop-color="#8B5CF6"/>
<stop offset="1" stop-color="#D946EF"/>
</linearGradient>
<linearGradient id="paint2_linear_20005128_13052" x1="3.99999" y1="39.05" x2="51" y2="39.05" gradientUnits="userSpaceOnUse">
<stop stop-color="#6366F1"/>
<stop offset="0.5" stop-color="#8B5CF6"/>
<stop offset="1" stop-color="#D946EF"/>
</linearGradient>
<linearGradient id="paint3_linear_20005128_13052" x1="3.99998" y1="23.7" x2="51" y2="23.7" gradientUnits="userSpaceOnUse">
<stop stop-color="#6366F1"/>
<stop offset="0.5" stop-color="#8B5CF6"/>
<stop offset="1" stop-color="#D946EF"/>
</linearGradient>
<linearGradient id="paint4_linear_20005128_13052" x1="4" y1="39.3" x2="51" y2="39.3" gradientUnits="userSpaceOnUse">
<stop stop-color="#6366F1"/>
<stop offset="0.5" stop-color="#8B5CF6"/>
<stop offset="1" stop-color="#D946EF"/>
</linearGradient>
<linearGradient id="paint5_linear_20005128_13052" x1="4" y1="25.25" x2="51" y2="25.25" gradientUnits="userSpaceOnUse">
<stop stop-color="#6366F1"/>
<stop offset="0.5" stop-color="#8B5CF6"/>
<stop offset="1" stop-color="#D946EF"/>
</linearGradient>
<clipPath id="clip0_20005128_13052">
<rect width="47" height="44" fill="white" transform="translate(4 4)"/>
</clipPath>
<clipPath id="clip1_20005128_13052">
<rect width="47" height="44" fill="white" transform="translate(4 4)"/>
</clipPath>
<clipPath id="clip2_20005128_13052">
<rect width="47" height="44" fill="white" transform="translate(4 4)"/>
</clipPath>
</defs>
</svg>
